<svg xmlns="http://www.w3.org/2000/svg" xmlns:xlink="http://www.w3.org/1999/xlink" contentStyleType="text/css" data-diagram-type="STATE" height="913px" preserveAspectRatio="none" style="width:1814px;height:913px;background:#FFFFFF;" version="1.1" viewBox="0 0 1814 913" width="1814px" zoomAndPan="magnify"><title>&#30028;&#38754;&#27969;&#36716;&#22270;&#65288;&#31661;&#22836; = &#21487;&#36339;&#36716;&#26041;&#21521;&#65289;&#183; DjangoBlog&#65288;&#36719;&#20214;3&#29677;4&#32452; &#183; &#32735;&#26060;&#36229;&#65289;</title><defs/><g><g class="title" data-source-line="1"><text fill="#000000" font-family="'Microsoft YaHei'" font-size="14" font-weight="bold" lengthAdjust="spacing" textLength="466.2656" x="667.1357" y="24.8135">&#30028;&#38754;&#27969;&#36716;&#22270;&#65288;&#31661;&#22836; = &#21487;&#36339;&#36716;&#26041;&#21521;&#65289;&#183; DjangoBlog&#65288;&#36719;&#20214;3&#29677;4&#32452; &#183; &#32735;&#26060;&#36229;&#65289;</text></g><g id="P_index"><rect fill="#F8FAFC" height="71.4731" rx="12.5" ry="12.5" style="stroke:#94A3B8;stroke-width:0.5;" width="162.8984" x="120" y="483.9575"/><line style="stroke:#94A3B8;stroke-width:0.5;" x1="120" x2="282.8984" y1="545.4307" y2="545.4307"/><text fill="#000000" font-family="'Microsoft YaHei'" font-size="13" lengthAdjust="spacing" textLength="26" x="130" y="502.7129">&#39318;&#39029;</text><text fill="#000000" font-family="'Microsoft YaHei'" font-size="13" font-weight="bold" lengthAdjust="spacing" textLength="6.1445" x="130" y="519.8706">/</text><text fill="#000000" font-family="'Microsoft YaHei'" font-size="13" lengthAdjust="spacing" textLength="142.8984" x="130" y="537.0283">blog/article_index.html</text></g><g id="P_detail"><rect fill="#F8FAFC" height="54.3154" rx="12.5" ry="12.5" style="stroke:#94A3B8;stroke-width:0.5;" width="193.9702" x="785" y="328.4575"/><line style="stroke:#94A3B8;stroke-width:0.5;" x1="785" x2="978.9702" y1="372.773" y2="372.773"/><text fill="#000000" font-family="'Microsoft YaHei'" font-size="13" lengthAdjust="spacing" textLength="52" x="795" y="347.2129">&#25991;&#31456;&#35814;&#24773;</text><text fill="#000000" font-family="'Microsoft YaHei'" font-size="13" lengthAdjust="spacing" textLength="173.9702" x="795" y="364.3706">/article/&#24180;/&#26376;/&#26085;/&#25991;&#31456;id.html</text></g><g id="P_cat"><rect fill="#F8FAFC" height="54.3154" rx="12.5" ry="12.5" style="stroke:#94A3B8;stroke-width:0.5;" width="156.0747" x="1305" y="462.4575"/><line style="stroke:#94A3B8;stroke-width:0.5;" x1="1305" x2="1461.0747" y1="506.773" y2="506.773"/><text fill="#000000" font-family="'Microsoft YaHei'" font-size="13" lengthAdjust="spacing" textLength="39" x="1315" y="481.2129">&#20998;&#31867;&#39029;</text><text fill="#000000" font-family="'Microsoft YaHei'" font-size="13" lengthAdjust="spacing" textLength="136.0747" x="1315" y="498.3706">/category/&#20998;&#31867;&#21517;.html</text></g><g id="P_tag"><rect fill="#F8FAFC" height="54.3154" rx="12.5" ry="12.5" style="stroke:#94A3B8;stroke-width:0.5;" width="122.0703" x="1322" y="115.4575"/><line style="stroke:#94A3B8;stroke-width:0.5;" x1="1322" x2="1444.0703" y1="159.773" y2="159.773"/><text fill="#000000" font-family="'Microsoft YaHei'" font-size="13" lengthAdjust="spacing" textLength="39" x="1332" y="134.2129">&#26631;&#31614;&#39029;</text><text fill="#000000" font-family="'Microsoft YaHei'" font-size="13" lengthAdjust="spacing" textLength="102.0703" x="1332" y="151.3706">/tag/&#26631;&#31614;&#21517;.html</text></g><g id="P_author"><rect fill="#F8FAFC" height="54.3154" rx="12.5" ry="12.5" style="stroke:#94A3B8;stroke-width:0.5;" width="142.9985" x="1311.5" y="222.4575"/><line style="stroke:#94A3B8;stroke-width:0.5;" x1="1311.5" x2="1454.4985" y1="266.773" y2="266.773"/><text fill="#000000" font-family="'Microsoft YaHei'" font-size="13" lengthAdjust="spacing" textLength="39" x="1321.5" y="241.2129">&#20316;&#32773;&#39029;</text><text fill="#000000" font-family="'Microsoft YaHei'" font-size="13" lengthAdjust="spacing" textLength="122.9985" x="1321.5" y="258.3706">/author/&#29992;&#25143;&#21517;.html</text></g><g id="P_arch"><rect fill="#F8FAFC" height="54.3154" rx="12.5" ry="12.5" style="stroke:#94A3B8;stroke-width:0.5;" width="107.5215" x="478.5" y="328.4575"/><line style="stroke:#94A3B8;stroke-width:0.5;" x1="478.5" x2="586.0215" y1="372.773" y2="372.773"/><text fill="#000000" font-family="'Microsoft YaHei'" font-size="13" lengthAdjust="spacing" textLength="39" x="488.5" y="347.2129">&#24402;&#26723;&#39029;</text><text fill="#000000" font-family="'Microsoft YaHei'" font-size="13" lengthAdjust="spacing" textLength="87.5215" x="488.5" y="364.3706">/archives.html</text></g><g id="P_links"><rect fill="#F8FAFC" height="54.3154" rx="12.5" ry="12.5" style="stroke:#94A3B8;stroke-width:0.5;" width="85.1968" x="490" y="492.4575"/><line style="stroke:#94A3B8;stroke-width:0.5;" x1="490" x2="575.1968" y1="536.773" y2="536.773"/><text fill="#000000" font-family="'Microsoft YaHei'" font-size="13" lengthAdjust="spacing" textLength="39" x="500" y="511.2129">&#21451;&#38142;&#39029;</text><text fill="#000000" font-family="'Microsoft YaHei'" font-size="13" lengthAdjust="spacing" textLength="65.1968" x="500" y="528.3706">/links.html</text></g><g id="P_search"><rect fill="#F8FAFC" height="54.3154" rx="12.5" ry="12.5" style="stroke:#94A3B8;stroke-width:0.5;" width="128.856" x="468" y="410.4575"/><line style="stroke:#94A3B8;stroke-width:0.5;" x1="468" x2="596.856" y1="454.773" y2="454.773"/><text fill="#000000" font-family="'Microsoft YaHei'" font-size="13" lengthAdjust="spacing" textLength="39" x="478" y="429.2129">&#25628;&#32034;&#39029;</text><text fill="#000000" font-family="'Microsoft YaHei'" font-size="13" lengthAdjust="spacing" textLength="108.856" x="478" y="446.3706">/search?q=&#20851;&#38190;&#35789;</text></g><g id="P_login"><rect fill="#F8FAFC" height="54.3154" rx="12.5" ry="12.5" style="stroke:#94A3B8;stroke-width:0.5;" width="62.6182" x="1351.5" y="647.4575"/><line style="stroke:#94A3B8;stroke-width:0.5;" x1="1351.5" x2="1414.1182" y1="691.773" y2="691.773"/><text fill="#000000" font-family="'Microsoft YaHei'" font-size="13" lengthAdjust="spacing" textLength="39" x="1361.5" y="666.2129">&#30331;&#24405;&#39029;</text><text fill="#000000" font-family="'Microsoft YaHei'" font-size="13" lengthAdjust="spacing" textLength="42.6182" x="1361.5" y="683.3706">/login/</text></g><g id="P_reg"><rect fill="#F8FAFC" height="54.3154" rx="12.5" ry="12.5" style="stroke:#94A3B8;stroke-width:0.5;" width="78.4238" x="1701.5" y="647.4575"/><line style="stroke:#94A3B8;stroke-width:0.5;" x1="1701.5" x2="1779.9238" y1="691.773" y2="691.773"/><text fill="#000000" font-family="'Microsoft YaHei'" font-size="13" lengthAdjust="spacing" textLength="39" x="1711.5" y="666.2129">&#27880;&#20876;&#39029;</text><text fill="#000000" font-family="'Microsoft YaHei'" font-size="13" lengthAdjust="spacing" textLength="58.4238" x="1711.5" y="683.3706">/register/</text></g><g id="P_pwd"><rect fill="#F8FAFC" height="54.3154" rx="12.5" ry="12.5" style="stroke:#94A3B8;stroke-width:0.5;" width="134.5371" x="1673" y="565.4575"/><line style="stroke:#94A3B8;stroke-width:0.5;" x1="1673" x2="1807.5371" y1="609.773" y2="609.773"/><text fill="#000000" font-family="'Microsoft YaHei'" font-size="13" lengthAdjust="spacing" textLength="52" x="1683" y="584.2129">&#24536;&#35760;&#23494;&#30721;</text><text fill="#000000" font-family="'Microsoft YaHei'" font-size="13" lengthAdjust="spacing" textLength="114.5371" x="1683" y="601.3706">/forget_password/</text></g><g id="P_admin"><rect fill="#F8FAFC" height="54.3154" rx="12.5" ry="12.5" style="stroke:#94A3B8;stroke-width:0.5;" width="72" x="1704.5" y="738.4575"/><line style="stroke:#94A3B8;stroke-width:0.5;" x1="1704.5" x2="1776.5" y1="782.773" y2="782.773"/><text fill="#000000" font-family="'Microsoft YaHei'" font-size="13" lengthAdjust="spacing" textLength="52" x="1714.5" y="757.2129">&#31649;&#29702;&#21518;&#21488;</text><text fill="#000000" font-family="'Microsoft YaHei'" font-size="13" lengthAdjust="spacing" textLength="50.2607" x="1714.5" y="774.3706">/admin/</text></g><g id="P_err"><rect fill="#F8FAFC" height="54.3154" rx="12.5" ry="12.5" style="stroke:#94A3B8;stroke-width:0.5;" width="78.9888" x="1343.5" y="306.4575"/><line style="stroke:#94A3B8;stroke-width:0.5;" x1="1343.5" x2="1422.4888" y1="350.773" y2="350.773"/><text fill="#000000" font-family="'Microsoft YaHei'" font-size="13" lengthAdjust="spacing" textLength="39" x="1353.5" y="325.2129">&#38169;&#35823;&#39029;</text><text fill="#000000" font-family="'Microsoft YaHei'" font-size="13" lengthAdjust="spacing" textLength="58.9888" x="1353.5" y="342.3706">404 / 500</text></g><ellipse cx="16" cy="519.4575" fill="#222222" rx="10" ry="10" style="stroke:#222222;stroke-width:1;"/><g class="entity" data-entity="GMN2" data-source-line="63" data-uid="ent0003" id="entity_GMN2"><path d="M1213,388.4575 L1213,388.4575 L979.21,366.0575 L1213,396.4575 L1213,432.773 A0,0 0 0 0 1213,432.773 L1553.1094,432.773 A0,0 0 0 0 1553.1094,432.773 L1553.1094,398.4575 L1543.1094,388.4575 L1213,388.4575 A0,0 0 0 0 1213,388.4575" fill="#FEFFDD" style="stroke:#181818;stroke-width:0.5;"/><path d="M1543.1094,388.4575 L1543.1094,398.4575 L1553.1094,398.4575 L1543.1094,388.4575" fill="#FEFFDD" style="stroke:#181818;stroke-width:0.5;"/><text fill="#000000" font-family="'Microsoft YaHei'" font-size="13" lengthAdjust="spacing" textLength="91" x="1219" y="407.2129">&#21516;&#39029;&#38754;&#20869;&#36339;&#36716;&#65306;</text><text fill="#000000" font-family="'Microsoft YaHei'" font-size="13" lengthAdjust="spacing" textLength="319.1094" x="1219" y="424.3706">&#19978;&#19968;&#31687;/&#19979;&#19968;&#31687;&#12289;&#35780;&#35770;&#32763;&#39029;(?comment_page=N)&#12289;&#28857;&#36190;</text></g><!--link *start* to P_index--><g class="link" data-entity-1=".start." data-entity-2="P_index" data-source-line="27" data-uid="lnk3" id="link_.start._P_index"><path d="M26.1,519.4575 C43.46,519.4575 76.86,519.4575 113.83,519.4575" fill="none" id="*start*-to-P_index" style="stroke:#2563EB;stroke-width:1;"/><polygon fill="#2563EB" points="119.83,519.4575,110.83,515.4575,114.83,519.4575,110.83,523.4575,119.83,519.4575" style="stroke:#2563EB;stroke-width:1;"/><text fill="#1E293B" font-family="'Microsoft YaHei'" font-size="13" lengthAdjust="spacing" textLength="52" x="47" y="515.2129">&#25171;&#24320;&#31449;&#28857;</text></g><!--link P_index to P_detail--><g class="link" data-entity-1="P_index" data-entity-2="P_detail" data-source-line="30" data-uid="lnk4" id="link_P_index_P_detail"><path d="M213.99,483.7675 C228.42,444.8175 257.03,383.5875 303,350.4575 C452.18,242.9275 678.2112,290.1565 797.9012,326.6765" fill="none" id="P_index-to-P_detail" style="stroke:#2563EB;stroke-width:1;"/><polygon fill="#2563EB" points="803.64,328.4275,796.1991,321.9751,798.8577,326.9683,793.8644,329.6269,803.64,328.4275" style="stroke:#2563EB;stroke-width:1;"/><text fill="#1E293B" font-family="'Microsoft YaHei'" font-size="13" lengthAdjust="spacing" textLength="65" x="500" y="281.2129">&#28857;&#25991;&#31456;&#26631;&#39064;</text></g><!--link P_index to P_cat--><g class="link" data-entity-1="P_index" data-entity-2="P_cat" data-source-line="31" data-uid="lnk5" id="link_P_index_P_cat"><path d="M283.13,537.2075 C453.28,571.6975 860.71,638.6575 1193,570.4575 C1243.36,560.1175 1291.5359,538.5541 1328.7159,519.2341" fill="none" id="P_index-to-P_cat" style="stroke:#2563EB;stroke-width:1;"/><polygon fill="#2563EB" points="1334.04,516.4675,1324.2095,517.068,1329.6033,518.773,1327.8982,524.1668,1334.04,516.4675" style="stroke:#2563EB;stroke-width:1;"/><text fill="#1E293B" font-family="'Microsoft YaHei'" font-size="13" lengthAdjust="spacing" textLength="39" x="671.5" y="582.2129">&#28857;&#20998;&#31867;</text></g><!--link P_index to P_tag--><g class="link" data-entity-1="P_index" data-entity-2="P_tag" data-source-line="32" data-uid="lnk6" id="link_P_index_P_tag"><path d="M208.94,483.6875 C219.64,434.8275 245.86,347.8775 303,300.4575 C610.2,45.4775 1137.5142,102.4167 1315.9542,130.7467" fill="none" id="P_index-to-P_tag" style="stroke:#2563EB;stroke-width:1;"/><polygon fill="#2563EB" points="1321.88,131.6875,1313.6185,126.3258,1316.9418,130.9035,1312.3641,134.2269,1321.88,131.6875" style="stroke:#2563EB;stroke-width:1;"/><text fill="#1E293B" font-family="'Microsoft YaHei'" font-size="13" lengthAdjust="spacing" textLength="91" x="645.5" y="117.2129">&#28857;&#20391;&#36793;&#26639;&#26631;&#31614;&#20113;</text></g><!--link P_index to P_arch--><g class="link" data-entity-1="P_index" data-entity-2="P_arch" data-source-line="33" data-uid="lnk7" id="link_P_index_P_arch"><path d="M237.65,483.5675 C255.88,466.5275 279.26,446.9975 303,433.4575 C359.07,401.4775 424.5566,381.2324 472.4766,368.9924" fill="none" id="P_index-to-P_arch" style="stroke:#2563EB;stroke-width:1;"/><polygon fill="#2563EB" points="478.29,367.5075,468.58,365.8593,473.4455,368.7449,470.5599,373.6104,478.29,367.5075" style="stroke:#2563EB;stroke-width:1;"/><text fill="#1E293B" font-family="'Microsoft YaHei'" font-size="13" lengthAdjust="spacing" textLength="91" x="330" y="372.2129">&#23548;&#33322;&#26639;&#12300;&#24402;&#26723;&#12301;</text></g><!--link P_index to P_search--><g class="link" data-entity-1="P_index" data-entity-2="P_search" data-source-line="34" data-uid="lnk8" id="link_P_index_P_search"><path d="M283.11,498.5075 C289.84,496.7875 296.53,495.0875 303,493.4575 C358.65,479.4375 416.2091,465.352 462.0891,454.222" fill="none" id="P_index-to-P_search" style="stroke:#2563EB;stroke-width:1;"/><polygon fill="#2563EB" points="467.92,452.8075,458.2307,451.042,463.0609,453.9863,460.1167,458.8166,467.92,452.8075" style="stroke:#2563EB;stroke-width:1;"/><text fill="#1E293B" font-family="'Microsoft YaHei'" font-size="13" lengthAdjust="spacing" textLength="78" x="336.5" y="455.2129">&#23548;&#33322;&#26639;&#25628;&#32034;&#26694;</text></g><!--link P_index to P_links--><g class="link" data-entity-1="P_index" data-entity-2="P_links" data-source-line="35" data-uid="lnk9" id="link_P_index_P_links"><path d="M283.4,519.4575 C348.66,519.4575 431.83,519.4575 483.58,519.4575" fill="none" id="P_index-to-P_links" style="stroke:#2563EB;stroke-width:1;"/><polygon fill="#2563EB" points="489.58,519.4575,480.58,515.4575,484.58,519.4575,480.58,523.4575,489.58,519.4575" style="stroke:#2563EB;stroke-width:1;"/><text fill="#1E293B" font-family="'Microsoft YaHei'" font-size="13" lengthAdjust="spacing" textLength="143" x="304" y="515.2129">&#30452;&#25509;&#35775;&#38382;&#65288;&#26080;&#20837;&#21475;&#38142;&#25509;&#65289;</text></g><!--link P_index to P_login--><g class="link" data-entity-1="P_index" data-entity-2="P_login" data-source-line="36" data-uid="lnk10" id="link_P_index_P_login"><path d="M214.73,555.2775 C229.44,592.3775 257.93,648.7375 303,676.4575 C484.4,788.0375 1188.8139,700.6399 1345.4039,679.5099" fill="none" id="P_index-to-P_login" style="stroke:#2563EB;stroke-width:1;"/><polygon fill="#2563EB" points="1351.35,678.7075,1341.8959,675.947,1346.3949,679.3762,1342.9657,683.8751,1351.35,678.7075" style="stroke:#2563EB;stroke-width:1;"/><text fill="#1E293B" font-family="'Microsoft YaHei'" font-size="13" lengthAdjust="spacing" textLength="91" x="645.5" y="725.2129">&#20391;&#36793;&#26639;&#12300;&#30331;&#24405;&#12301;</text></g><!--link P_login to P_index--><g class="link" data-entity-1="P_login" data-entity-2="P_index" data-source-line="53" data-uid="lnk21" id="link_P_login_P_index"><path d="M1351.19,673.5775 C1286.1,671.6275 1129.82,666.3475 999,657.4575 C688.03,636.3175 598.94,669.2775 303,571.4575 C289.94,567.1375 281.8935,563.9466 269.2735,557.7366" fill="none" id="P_login-to-P_index" style="stroke:#2563EB;stroke-width:1;"/><polygon fill="#2563EB" points="263.89,555.0875,270.1992,562.6502,268.3763,557.2951,273.7313,555.4722,263.89,555.0875" style="stroke:#2563EB;stroke-width:1;"/><text fill="#1E293B" font-family="'Microsoft YaHei'" font-size="13" lengthAdjust="spacing" textLength="146.4468" x="618" y="636.2129">&#30331;&#24405;&#25104;&#21151; success_url='/'</text></g><!--link P_cat to P_detail--><g class="link" data-entity-1="P_cat" data-entity-2="P_detail" data-source-line="39" data-uid="lnk11" id="link_P_cat_P_detail"><path d="M1304.68,481.5275 C1226.06,471.8975 1101.56,452.2975 999,416.4575 C974.19,407.7875 953.3814,397.4833 932.2714,385.5333" fill="none" id="P_cat-to-P_detail" style="stroke:#2563EB;stroke-width:1;"/><polygon fill="#2563EB" points="927.05,382.5775,932.9117,390.4921,931.4012,385.0407,936.8527,383.5302,927.05,382.5775" style="stroke:#2563EB;stroke-width:1;"/><text fill="#1E293B" font-family="'Microsoft YaHei'" font-size="13" lengthAdjust="spacing" textLength="39" x="1076.5" y="412.2129">&#28857;&#25991;&#31456;</text></g><!--link P_detail to P_cat--><g class="link" data-entity-1="P_detail" data-entity-2="P_cat" data-source-line="47" data-uid="lnk17" id="link_P_detail_P_cat"><path d="M897.05,382.7375 C915.46,415.1475 951.14,467.5875 999,489.4575 C1096.97,534.2275 1218.419,523.4228 1298.729,508.6528" fill="none" id="P_detail-to-P_cat" style="stroke:#2563EB;stroke-width:1;"/><polygon fill="#2563EB" points="1304.63,507.5675,1295.0549,505.2614,1299.7125,508.4719,1296.502,513.1295,1304.63,507.5675" style="stroke:#2563EB;stroke-width:1;"/><text fill="#1E293B" font-family="'Microsoft YaHei'" font-size="13" lengthAdjust="spacing" textLength="39" x="1076.5" y="485.2129">&#28857;&#20998;&#31867;</text></g><!--link P_tag to P_detail--><g class="link" data-entity-1="P_tag" data-entity-2="P_detail" data-source-line="40" data-uid="lnk12" id="link_P_tag_P_detail"><path d="M1321.78,144.5775 C1220.86,148.5575 1025.94,158.2375 999,174.4575 C940.49,209.6975 908.3753,281.3961 893.6653,322.6461" fill="none" id="P_tag-to-P_detail" style="stroke:#2563EB;stroke-width:1;"/><polygon fill="#2563EB" points="891.65,328.2975,898.4406,321.164,893.3294,323.588,890.9054,318.4769,891.65,328.2975" style="stroke:#2563EB;stroke-width:1;"/><text fill="#1E293B" font-family="'Microsoft YaHei'" font-size="13" lengthAdjust="spacing" textLength="39" x="1076.5" y="148.2129">&#28857;&#25991;&#31456;</text></g><!--link P_detail to P_tag--><g class="link" data-entity-1="P_detail" data-entity-2="P_tag" data-source-line="48" data-uid="lnk18" id="link_P_detail_P_tag"><path d="M899.76,328.2575 C919.56,298.6975 955.39,252.5775 999,229.4575 C1076.02,188.6175 1107.98,219.7475 1193,200.4575 C1236.68,190.5475 1279.2445,177.5547 1316.0645,165.3547" fill="none" id="P_detail-to-P_tag" style="stroke:#2563EB;stroke-width:1;"/><polygon fill="#2563EB" points="1321.76,163.4675,1311.9587,162.5013,1317.0138,165.0402,1314.4749,170.0953,1321.76,163.4675" style="stroke:#2563EB;stroke-width:1;"/><text fill="#1E293B" font-family="'Microsoft YaHei'" font-size="13" lengthAdjust="spacing" textLength="39" x="1076.5" y="196.2129">&#28857;&#26631;&#31614;</text></g><!--link P_arch to P_detail--><g class="link" data-entity-1="P_arch" data-entity-2="P_detail" data-source-line="41" data-uid="lnk13" id="link_P_arch_P_detail"><path d="M586.66,355.4575 C639.23,355.4575 714.86,355.4575 778.83,355.4575" fill="none" id="P_arch-to-P_detail" style="stroke:#2563EB;stroke-width:1;"/><polygon fill="#2563EB" points="784.83,355.4575,775.83,351.4575,779.83,355.4575,775.83,359.4575,784.83,355.4575" style="stroke:#2563EB;stroke-width:1;"/><text fill="#1E293B" font-family="'Microsoft YaHei'" font-size="13" lengthAdjust="spacing" textLength="39" x="671.5" y="351.2129">&#28857;&#25991;&#31456;</text></g><!--link P_search to P_detail--><g class="link" data-entity-1="P_search" data-entity-2="P_detail" data-source-line="42" data-uid="lnk14" id="link_P_search_P_detail"><path d="M597.24,422.4175 C649.75,410.0275 719.1902,393.6345 779.0302,379.5245" fill="none" id="P_search-to-P_detail" style="stroke:#2563EB;stroke-width:1;"/><polygon fill="#2563EB" points="784.87,378.1475,775.1922,376.3198,780.0035,379.295,777.0282,384.1063,784.87,378.1475" style="stroke:#2563EB;stroke-width:1;"/><text fill="#1E293B" font-family="'Microsoft YaHei'" font-size="13" lengthAdjust="spacing" textLength="65" x="658.5" y="380.2129">&#28857;&#25628;&#32034;&#32467;&#26524;</text></g><!--link P_author to P_detail--><g class="link" data-entity-1="P_author" data-entity-2="P_detail" data-source-line="43" data-uid="lnk15" id="link_P_author_P_detail"><path d="M1311.11,265.2975 C1280.65,272.6675 1244.81,282.0975 1213,292.4575 C1203.9,295.4175 1202.23,297.9275 1193,300.4575 C1108.84,323.4775 1084.79,314.5975 999,330.4575 C992.52,331.6575 991.7238,331.7725 985.0138,333.1125" fill="none" id="P_author-to-P_detail" style="stroke:#2563EB;stroke-width:1;"/><polygon fill="#2563EB" points="979.13,334.2875,988.7391,336.4476,984.0332,333.3084,987.1724,328.6025,979.13,334.2875" style="stroke:#2563EB;stroke-width:1;"/><text fill="#1E293B" font-family="'Microsoft YaHei'" font-size="13" lengthAdjust="spacing" textLength="39" x="1076.5" y="296.2129">&#28857;&#25991;&#31456;</text></g><!--link P_detail to P_author--><g class="link" data-entity-1="P_detail" data-entity-2="P_author" data-source-line="46" data-uid="lnk16" id="link_P_detail_P_author"><path d="M914.11,328.3675 C936.21,310.8175 967.45,289.2875 999,278.4575 C1054.89,259.2675 1211.0016,252.8866 1305.4416,250.6966" fill="none" id="P_detail-to-P_author" style="stroke:#2563EB;stroke-width:1;"/><polygon fill="#2563EB" points="1311.44,250.5575,1302.3497,246.7673,1306.4413,250.6735,1302.5352,254.7651,1311.44,250.5575" style="stroke:#2563EB;stroke-width:1;"/><text fill="#1E293B" font-family="'Microsoft YaHei'" font-size="13" lengthAdjust="spacing" textLength="52" x="1070" y="251.2129">&#28857;&#20316;&#32773;&#21517;</text></g><!--link P_detail to P_login--><g class="link" data-entity-1="P_detail" data-entity-2="P_login" data-source-line="51" data-uid="lnk19" id="link_P_detail_P_login"><path d="M892.16,382.6675 C907.56,424.2575 942.61,503.3175 999,546.4575 C1070.28,600.9875 1107.88,574.0175 1193,602.4575 C1249.45,621.3175 1308.4384,644.5163 1345.6184,659.5663" fill="none" id="P_detail-to-P_login" style="stroke:#2563EB;stroke-width:1;"/><polygon fill="#2563EB" points="1351.18,661.8175,1344.3384,654.7329,1346.5453,659.9415,1341.3367,662.1484,1351.18,661.8175" style="stroke:#2563EB;stroke-width:1;"/><text fill="#1E293B" font-family="'Microsoft YaHei'" font-size="13" lengthAdjust="spacing" textLength="192.4609" x="1000" y="542.2129">&#25552;&#20132;&#35780;&#35770;&#65288;&#26410;&#30331;&#24405;&#65289;next=&#24403;&#21069;&#39029;</text></g><!--link P_login to P_detail--><g class="link" data-entity-1="P_login" data-entity-2="P_detail" data-source-line="52" data-uid="lnk20" id="link_P_login_P_detail"><path d="M1351.46,672.5375 C1265.69,666.9175 1027.04,649.5275 999,628.4575 C917.89,567.5275 893.6833,444.6588 886.4833,388.5188" fill="none" id="P_login-to-P_detail" style="stroke:#2563EB;stroke-width:1;"/><polygon fill="#2563EB" points="885.72,382.5675,882.8974,392.0033,886.356,387.5269,890.8324,390.9856,885.72,382.5675" style="stroke:#2563EB;stroke-width:1;"/><text fill="#1E293B" font-family="'Microsoft YaHei'" font-size="13" lengthAdjust="spacing" textLength="91" x="1050.5" y="624.2129">&#30331;&#24405;&#25104;&#21151;&#22238;&#21407;&#39029;</text></g><!--link P_login to P_reg--><g class="link" data-entity-1="P_login" data-entity-2="P_reg" data-source-line="54" data-uid="lnk22" id="link_P_login_P_reg"><path d="M1414.62,674.4575 C1479.46,674.4575 1624.48,674.4575 1695.42,674.4575" fill="none" id="P_login-to-P_reg" style="stroke:#2563EB;stroke-width:1;"/><polygon fill="#2563EB" points="1701.42,674.4575,1692.42,670.4575,1696.42,674.4575,1692.42,678.4575,1701.42,674.4575" style="stroke:#2563EB;stroke-width:1;"/><text fill="#1E293B" font-family="'Microsoft YaHei'" font-size="13" lengthAdjust="spacing" textLength="52" x="1587" y="670.2129">&#12300;&#27880;&#20876;&#12301;</text></g><!--link P_login to P_pwd--><g class="link" data-entity-1="P_login" data-entity-2="P_pwd" data-source-line="55" data-uid="lnk23" id="link_P_login_P_pwd"><path d="M1414.62,667.3975 C1471.71,654.2275 1589.7837,626.9967 1667.0037,609.1767" fill="none" id="P_login-to-P_pwd" style="stroke:#2563EB;stroke-width:1;"/><polygon fill="#2563EB" points="1672.85,607.8275,1663.181,605.9537,1667.978,608.9518,1664.9799,613.7488,1672.85,607.8275" style="stroke:#2563EB;stroke-width:1;"/><text fill="#1E293B" font-family="'Microsoft YaHei'" font-size="13" lengthAdjust="spacing" textLength="78" x="1574" y="609.2129">&#12300;&#24536;&#35760;&#23494;&#30721;&#12301;</text></g><!--link P_login to P_admin--><g class="link" data-entity-1="P_login" data-entity-2="P_admin" data-source-line="56" data-uid="lnk24" id="link_P_login_P_admin"><path d="M1414.62,682.2975 C1480.39,699.1275 1629.0075,737.1691 1698.5975,754.9891" fill="none" id="P_login-to-P_admin" style="stroke:#2563EB;stroke-width:1;"/><polygon fill="#2563EB" points="1704.41,756.4775,1696.6836,750.37,1699.5663,755.2372,1694.699,758.1199,1704.41,756.4775" style="stroke:#2563EB;stroke-width:1;"/><text fill="#1E293B" font-family="'Microsoft YaHei'" font-size="13" lengthAdjust="spacing" textLength="52" x="1587" y="720.2129">&#36229;&#31649;&#30331;&#24405;</text></g><!--link P_admin to P_index--><g class="link" data-entity-1="P_admin" data-entity-2="P_index" data-source-line="57" data-uid="lnk25" id="link_P_admin_P_index"><path d="M1704.19,766.9475 C1640.31,769.4975 1501.3,774.4575 1384,774.4575 C531.5,774.4575 531.5,774.4575 531.5,774.4575 C427.64,774.4575 384.79,789.4675 303,725.4575 C248,682.4175 222.6096,607.4047 211.1796,560.8147" fill="none" id="P_admin-to-P_index" style="stroke:#2563EB;stroke-width:1;"/><polygon fill="#2563EB" points="209.75,554.9875,208.0096,564.6814,210.9413,559.8435,215.7792,562.7753,209.75,554.9875" style="stroke:#2563EB;stroke-width:1;"/><text fill="#1E293B" font-family="'Microsoft YaHei'" font-size="13" lengthAdjust="spacing" textLength="70.5542" x="847" y="770.2129">&#36864;&#20986;/&#22238;&#21069;&#21488;</text></g><!--link P_detail to P_err--><g class="link" data-entity-1="P_detail" data-entity-2="P_err" data-source-line="60" data-uid="lnk26" id="link_P_detail_P_err"><path d="M979.08,356.7675 C1040.34,357.0475 1121.39,356.3975 1193,352.4575 C1245.19,349.5875 1299.2534,343.7075 1337.3934,339.0975" fill="none" id="P_detail-to-P_err" style="stroke:#2563EB;stroke-width:1;"/><polygon fill="#2563EB" points="1343.35,338.3775,1333.935,335.4864,1338.3861,338.9775,1334.895,343.4286,1343.35,338.3775" style="stroke:#2563EB;stroke-width:1;"/><text fill="#1E293B" font-family="'Microsoft YaHei'" font-size="13" lengthAdjust="spacing" textLength="109.5542" x="1041.5" y="348.2129">&#25991;&#31456;&#19981;&#23384;&#22312;/&#26080;&#26435;&#38480;</text></g><g class="legend" data-source-line="67"><rect fill="#DDDDDD" height="83.9102" rx="7.5" ry="7.5" style="stroke:#000000;stroke-width:1;" width="520.3506" x="640.0933" y="809.773"/><text fill="#000000" font-family="'Microsoft YaHei'" font-size="14" font-weight="bold" lengthAdjust="spacing" textLength="168" x="645.0933" y="829.5864">&#30331;&#24405;&#38381;&#29615;&#65288;&#35780;&#35770;&#38656;&#30331;&#24405;&#65289;&#65306;</text><text fill="#000000" font-family="'Microsoft YaHei'" font-size="14" lengthAdjust="spacing" textLength="342.3506" x="813.0933" y="829.5864">&#26410;&#30331;&#24405;&#28857;&#12300;&#21457;&#34920;&#35780;&#35770;&#12301;&#8594; &#36339;&#36716; /login/?next=&#24403;&#21069;&#39029; &#8594;</text><text fill="#000000" font-family="'Microsoft YaHei'" font-size="14" lengthAdjust="spacing" textLength="294" x="645.0933" y="848.064">&#30331;&#24405;&#25104;&#21151;&#21518;&#33258;&#21160;&#22238;&#21040;&#21407;&#25991;&#31456;&#65292;&#19981;&#20002;&#22833;&#38405;&#35835;&#20301;&#32622;&#12290;</text><text fill="#000000" font-family="'Microsoft YaHei'" font-size="14" font-weight="bold" lengthAdjust="spacing" textLength="84" x="645.0933" y="866.5415">&#21516;&#39029;&#38754;&#36339;&#36716;&#65306;</text><text fill="#000000" font-family="'Microsoft YaHei'" font-size="14" lengthAdjust="spacing" textLength="363.665" x="729.0933" y="866.5415">&#39318;&#39029;&#20998;&#39029; /page/&#39029;&#30721;/&#12289;&#20998;&#31867;&#20998;&#39029;&#12289;&#26631;&#31614;&#20998;&#39029;&#12289;&#35780;&#35770;&#32763;&#39029;&#12290;</text><text fill="#000000" font-family="'Microsoft YaHei'" font-size="14" font-weight="bold" lengthAdjust="spacing" textLength="164.124" x="645.0933" y="885.0191">&#21451;&#24773;&#38142;&#25509;&#39029; /links.html&#65306;</text><text fill="#000000" font-family="'Microsoft YaHei'" font-size="14" lengthAdjust="spacing" textLength="280" x="809.2173" y="885.0191">&#27169;&#26495;&#20013;&#27809;&#26377;&#20837;&#21475;&#38142;&#25509;&#65292;&#38656;&#30452;&#25509;&#36755;&#20837;&#32593;&#22336;&#35775;&#38382;&#12290;</text></g><!--SRC=[XLRVKzj647xNNt537sWxaue0wIIT6APffzENPZgJfqxfCB9zDYgsH2LHqZwP7pQ6O6m2mH0Cs0HI3wbjKY0Oi64cVqhnIV8J_qBtT98GWgGyeTrlz_Q-_MxNcgZ5C39UpBNNj_J3SRFvDraxksoaZMg5R1-W02BPcdcq3tPz-PZa5YuRC- -FqBU_2b9KVXIJem0rcxNMwRiU8rlfDKwd4BYDyqqzFsU-ImAQKuT5QKHGX3WAuuWm6jE-aoNjiH37gEC7CQJ8gXpHq4_2zrZiy63L8I4iZubI54M4c8ezdgyLHHxxHex92lga-zwNFJZeTz83RC1TtFsWnmjueWaQVYGhOQpOa0UzGa_m_Ws841gEAlAe5BPXaViH8HBom-XHJyG_CRhRut59SXYhU0HrUzCgWZHCZRrTN0p3bJKPAM9qI4DXKS4XJPGbZbDfJjJHVhtSBXqEI0-3VVn3FjWt80M1QbvGD34KmuEY5CPFlnZIuh4E9AZeHsPmWlNbQUDDqQozrYUJ0v8Jn9FZ0rulf7azlyCpY1ZsvWXZJH1ZJXAIJXblJwqY-11OehBo1y-C99Vnne7NFRauRLJEM90cH7dsxSE3my6tcWKpaMHuOLGRaXNUM2hhwIDV2FEvfJMVwwLNTfGI6X9_n-erDDXSRFPPUz6kA2O2_rwWPN1hpnMCWos6L37DqVzRW2JtsqjLivQn8vZ32J5MJqdpXPrSZeeIxoIc7sxY_J99pJ6KWgEYgc750SAtM-dvYbdT8xMKKHm7P4HMebWR715KTGp4wWICZ8NTqwib8vSYkNcItQDCXEDN1LWVhfYMLirQpIgWjwiNyUXULvUDmuh2SJz__WkwSwVFaH7w2kapYwIHCDwi6XF77DU90lGFCL4QBwV8z0d9lc9MpebY6PY880L4Cf611jfRApuOQ8PXcA9yNb08yxRE_ZBFZlLYbWcfTRBWGz9k09JK6cPw5t0NYJccZej4nWTbhVE2MSVrKig7j6H12rWxqETtpEfvEr-5AQVdYoIv0nS7GO6TJZPV7EqwnBbLGpLC8hGQbqQIpfkbCZ2988gzKlhXi4cf-H2N7EFc8sxhZX_nsopSWh38C4uNzOq2vxou3sToR-DUWEeYbMnFbjcoSEzZ1zlzOcbPSwt73o_T3xefZcjkLnrC55UbsCynNp7cQtGhrQRCwacxa61swDUj9JbTqxEvrias2wBTBkowSH9-gWL8Sv7CPE2Yd1FZ9yU2w-aScTqaQnjaVlCcs7bWNYnIHqCXhAg3eqeiqCbt-a9WH400I8dD4IPiBm160WDu9yXDc3KI00XBcKuEgm3ECL-lhfr8m1FdwILcCZ1TFDfjJ91w_VRUmYoXD5hwQDKpfB922cNODaLzVRAzckCuIOPfn3QU7BbQE0YH71sFyFi31CJKSzbu2VPMVRPLJnYrQRvLVyR-kqYCinOPvtGvVTeVakDnBD516SM1nv-17vHX7cvmM0eZUY87opPAFuAofibnI0jBzN-b0WNGlUkg099IXhCBy7GP6XZ-D_KSsMgtvt__TQaWGC21rvIHcpUdTybicRARtWELCCOk6tD0Mgk-HRRVjbUIPksqrSmOpUf5OeALx9BaCaGBP3CP7WezZQSayFGj5iTvOC9UrvOJFkrjx7nwURmw9VkCFcThmbafhvQcGqcvfA-Vj-eL_P-INfYvFXBdA8TiR9ujWijeBf3r11kXz0pQ1zQE_m00]--></g></svg>